<svg xmlns="http://www.w3.org/2000/svg" width="512" height="512" viewBox="-3 -3 518 518" version="1.1"><g id="deeditor_bgCarrier" stroke-width="0">
  <rect id="dee_c_e" x="-3" y="-3" width="518" height="518" rx="38.4" fill="#ffffff" strokewidth="0"/>
</g>
	<path d="M 115.031 18.346 C 105.703 20.755, 103.498 29.296, 103.503 63 C 103.507 87.724, 103.814 89.899, 110.109 109.798 C 112.368 116.937, 114 124.098, 114 126.867 C 114 137.458, 107.730 151.192, 97.504 163 C 93.931 167.125, 91.006 170.841, 91.004 171.257 C 91.002 171.673, 94.152 171.721, 98.004 171.363 L 105.008 170.712 104.254 174.106 C 102.652 181.317, 103.653 195.137, 106.391 203.631 L 109.012 211.762 119.756 212.454 C 129.636 213.091, 141.648 215.075, 156.248 218.481 C 159.412 219.219, 162 219.713, 162 219.580 C 162 219.446, 159.781 217.899, 157.069 216.141 C 144.032 207.694, 132.122 189.587, 128.450 172.629 C 126.386 163.097, 126.596 162.517, 136.641 150 C 147.461 136.517, 163.609 120.945, 170.581 117.269 C 199.779 101.874, 233.010 117.034, 237.948 148 C 239.309 156.530, 239.253 178.658, 237.849 187.500 C 237.237 191.350, 236.684 195.625, 236.619 197 L 236.500 199.500 254.500 199.500 L 272.500 199.500 272.500 171 C 272.500 143.505, 272.582 142.297, 274.821 136.753 C 281.733 119.637, 302.774 108.755, 322.924 111.877 C 333.934 113.583, 343.188 118.451, 353.041 127.720 C 361.266 135.458, 375.251 151.782, 380.462 159.726 C 383.676 164.627, 383.520 168.181, 379.581 179.759 C 374.125 195.797, 366.347 206.680, 354.954 214.215 C 350.626 217.077, 347.200 219.534, 347.340 219.674 C 347.480 219.814, 353.199 218.585, 360.048 216.944 C 367.122 215.248, 378.488 213.445, 386.365 212.768 C 402.567 211.378, 401.857 211.901, 405.138 198.925 C 406.873 192.066, 407.164 188.697, 406.719 180.626 L 406.174 170.733 412.087 171.351 C 415.339 171.691, 418 171.584, 418 171.112 C 418 170.641, 415.704 167.385, 412.899 163.877 C 406.363 155.706, 400.697 145.982, 398.404 139 C 395.420 129.913, 395.929 123.205, 400.682 109 C 407.397 88.927, 408.322 82.066, 407.696 57 C 406.850 23.156, 404.658 17.662, 392.004 17.670 C 376.450 17.680, 361.918 24.711, 332.500 46.463 L 321.500 54.596 313.131 51.327 C 287.905 41.474, 253.545 38.502, 224 43.618 C 215.225 45.137, 200.266 49.838, 193.836 53.096 L 190.172 54.953 179.836 47.273 C 155.629 29.285, 144.881 22.956, 132.983 19.683 C 124.767 17.422, 119.986 17.066, 115.031 18.346 M 122.543 41.366 C 119.500 44.409, 118.500 51.990, 119.369 65.447 C 120.533 83.480, 124.628 97.504, 132.160 109.246 C 135.205 113.994, 137 114.613, 137 110.915 C 137 109.059, 137.166 109.035, 139.950 110.474 C 143.837 112.484, 144 112.441, 144 109.392 C 144 107.049, 144.280 106.852, 146.750 107.458 C 149.294 108.083, 149.140 107.766, 144.705 103.237 L 139.911 98.341 145.705 97.058 C 148.892 96.352, 151.950 95.659, 152.500 95.518 C 153.050 95.377, 154.290 95.949, 155.256 96.791 C 157.470 98.720, 158.501 97.804, 157.088 95.164 C 154.881 91.040, 153.032 90.229, 142.797 88.898 L 132.500 87.558 138.764 86.757 C 143.719 86.124, 146.731 86.380, 153.175 87.984 C 157.656 89.099, 161.547 89.786, 161.823 89.510 C 162.884 88.449, 159.956 84.029, 157.273 82.641 C 153.477 80.678, 143.956 79, 136.616 79 C 128.387 79, 130.597 76.748, 139.374 76.189 C 147.670 75.661, 155.614 77.944, 159.465 81.963 C 162.793 85.437, 165 85.878, 165 83.070 C 165 81.376, 165.390 81.251, 168.184 82.053 C 169.935 82.555, 171.572 82.761, 171.823 82.511 C 172.675 81.658, 165.518 70.800, 159.214 63.381 C 151.224 53.980, 141.179 45.583, 133.500 41.889 C 126.236 38.393, 125.549 38.360, 122.543 41.366 M 376.427 42.590 C 369.123 46.473, 366.250 48.670, 357.652 56.946 C 350.413 63.913, 338 79.574, 338 81.739 C 338 83.023, 344.199 82.966, 345.839 81.667 C 346.875 80.848, 347.101 81.048, 346.839 82.554 C 346.591 83.978, 346.993 84.416, 348.338 84.186 C 350.158 83.875, 350.154 84.688, 348.310 89.609 C 348.082 90.218, 350.897 89.206, 354.568 87.359 C 359.780 84.735, 362.364 84.030, 366.370 84.136 C 369.192 84.211, 370.375 84.460, 369 84.690 C 365.138 85.336, 353.614 89.143, 352.550 90.124 C 351.983 90.647, 352.513 91, 353.868 91 L 356.136 91 353.959 94.058 C 352.762 95.739, 351.989 97.322, 352.242 97.575 C 352.495 97.828, 354.682 97.137, 357.101 96.040 C 359.950 94.747, 363.681 94.036, 367.691 94.022 C 376.374 93.991, 376.942 95.957, 368.309 96.160 C 364.564 96.248, 362.962 96.502, 364.750 96.723 C 369.002 97.251, 369.033 99.754, 364.846 104.523 L 361.691 108.116 364.346 107.449 C 366.698 106.859, 367 107.073, 367 109.332 C 367 111.795, 367.093 111.833, 369.750 110.442 C 372.371 109.070, 372.552 109.127, 373.616 111.663 L 374.732 114.323 378.315 108.722 C 383.424 100.735, 385.493 96.413, 387.816 88.877 C 392.194 74.670, 393.069 49.902, 389.441 42.887 C 387.497 39.126, 383.130 39.026, 376.427 42.590 M 135.294 53.326 C 133.531 53.972, 131.506 55.129, 130.794 55.897 C 129.709 57.069, 129.823 57.175, 131.500 56.554 C 132.600 56.147, 136.156 55.563, 139.402 55.255 C 144.657 54.756, 145.101 54.547, 143.460 53.347 C 141.277 51.751, 139.607 51.747, 135.294 53.326 M 367.662 53.618 C 366.100 54.464, 364.975 55.255, 365.162 55.376 C 365.348 55.497, 368.875 55.349, 373 55.048 C 379.636 54.563, 380.248 54.356, 378.316 53.250 C 375.407 51.585, 371.141 51.733, 367.662 53.618 M 312.539 61.492 C 310.911 62.823, 309.818 64.152, 310.112 64.445 C 310.406 64.739, 311.935 63.634, 313.510 61.990 C 316.954 58.395, 316.570 58.198, 312.539 61.492 M 361.500 63.434 C 357.704 65.149, 353.556 68.461, 356.283 67.600 C 362.632 65.596, 371.174 64.769, 375.894 65.703 C 381.579 66.827, 382.546 65.851, 378.050 63.526 C 374.428 61.653, 365.551 61.603, 361.500 63.434 M 135.625 64.469 C 133.493 65.229, 131.243 66.400, 130.625 67.072 C 129.763 68.008, 129.913 68.149, 131.263 67.674 C 135.626 66.137, 145.733 65.939, 150.750 67.292 C 157.114 69.007, 157.568 67.937, 151.684 65.089 C 146.737 62.694, 141.204 62.481, 135.625 64.469 M 360.749 75.432 C 356.385 76.589, 352 79.366, 352 80.973 C 352 81.338, 355.038 80.844, 358.750 79.876 C 362.462 78.908, 367.750 78.058, 370.500 77.987 C 373.250 77.917, 376.400 77.508, 377.500 77.078 C 379.435 76.321, 379.426 76.273, 377.243 75.578 C 373.020 74.236, 365.513 74.169, 360.749 75.432 M 360.750 88.716 C 359.238 88.945, 358 89.575, 358 90.116 C 358 91.134, 367.397 90.471, 374 88.987 C 376.812 88.355, 376.125 88.211, 370.500 88.250 C 366.650 88.277, 362.262 88.487, 360.750 88.716 M 138.500 93 C 135.427 93.550, 136.470 93.722, 143 93.740 C 148.824 93.756, 150.556 93.523, 148.500 93 C 144.871 92.076, 143.658 92.076, 138.500 93 M 172.982 142.037 C 167.669 143.299, 159.909 146.832, 156.145 149.703 C 151.850 152.979, 150.123 157.200, 149.376 166.248 C 147.891 184.233, 155.610 200.413, 169.583 208.601 C 173.570 210.938, 175.779 211.467, 182.930 211.796 C 201.297 212.642, 219.015 204.779, 224.135 193.509 C 226.339 188.658, 226.408 185.590, 224.517 176.665 C 220.748 158.876, 211.164 147.954, 194.875 142.884 C 188.590 140.928, 179.182 140.564, 172.982 142.037 M 315.487 142.799 C 304.682 146.535, 294.689 154.808, 290.088 163.827 C 285.388 173.040, 283.693 185.954, 286.352 192.282 C 289.266 199.215, 300.464 207.044, 312.451 210.529 C 320.887 212.981, 332.811 212.206, 339.520 208.771 C 345.226 205.848, 352.854 198.167, 355.815 192.362 C 361.552 181.117, 363.335 163.232, 359.489 155.500 C 353.965 144.391, 330.483 137.613, 315.487 142.799 M 170.945 165.108 C 165.323 176.129, 170.627 191.898, 181.315 195.936 C 187.102 198.123, 195.561 196.468, 200.355 192.212 C 206.011 187.191, 208.581 174.721, 205.487 167.314 C 203.505 162.571, 202.848 163.407, 204.142 169.027 C 207.871 185.227, 196.930 198.751, 183.106 195.029 C 178.954 193.911, 173.653 188.790, 171.834 184.139 C 170.253 180.100, 170.558 169.974, 172.391 165.596 C 174.650 160.204, 173.623 159.858, 170.945 165.108 M 184.750 163.982 C 182.499 165.752, 182 166.939, 182 170.516 C 182 175.768, 184.453 178, 190.223 178 C 195.062 178, 198 175.209, 198 170.611 C 198 163.539, 190.245 159.660, 184.750 163.982 M 316.635 164.073 C 311.066 168.453, 314.665 178, 321.884 178 C 327.038 178, 330 175.093, 330 170.034 C 330 165.495, 326.520 162, 322 162 C 320.498 162, 318.084 162.933, 316.635 164.073 M 337.527 163.500 C 340.983 173.516, 340.638 181.927, 336.516 188.155 C 331.472 195.778, 320.271 198.177, 313.209 193.149 C 307.243 188.901, 304.279 177.965, 306.256 167.500 L 307.011 163.500 304.885 167.438 C 300.236 176.050, 305.548 190.547, 315.200 195.589 C 322.418 199.360, 333.536 195.674, 338.263 187.944 C 342.839 180.458, 342.922 168.979, 338.439 163.469 C 336.848 161.514, 336.842 161.515, 337.527 163.500 M 245.191 203.747 C 241.108 204.468, 242.732 208.775, 249 213.852 C 252.025 216.302, 254.646 218.917, 254.825 219.664 C 255.329 221.765, 251.341 227.524, 248.478 228.828 C 245.809 230.044, 236.282 230.429, 233.670 229.427 C 232.360 228.924, 232.374 228.511, 233.785 226.052 C 235.272 223.461, 235.264 223.052, 233.684 220.641 C 231.626 217.500, 227.745 216.340, 224.398 217.864 C 219.080 220.287, 220.098 225.450, 226.964 230.878 C 235.630 237.727, 245.911 238.421, 252.664 232.613 L 255.359 230.294 259.568 233.261 C 265.738 237.610, 271.909 237.510, 279.458 232.939 C 286.152 228.886, 287.616 227.413, 288.509 223.837 C 289.411 220.222, 286.181 217, 281.655 217 C 275.864 217, 272.892 223.013, 276.636 227.150 C 278.157 228.831, 278.139 229.012, 276.386 229.726 C 275.349 230.149, 272.162 230.496, 269.306 230.497 C 264.760 230.500, 263.677 230.079, 260.634 227.130 C 256.323 222.952, 255.114 219.066, 257.687 217.658 C 263.937 214.239, 269.236 205.626, 265.750 204.552 C 263.731 203.930, 247.710 203.303, 245.191 203.747 M 96.212 214.073 C 86.803 214.982, 78.165 216.637, 76.104 217.926 C 73.830 219.347, 75.600 222.349, 78.262 221.585 C 87.719 218.873, 92.920 217.849, 101.097 217.087 C 106.269 216.606, 110.845 216.420, 111.266 216.675 C 112.339 217.324, 122.245 232.101, 121.835 232.442 C 121.651 232.596, 118.125 233.530, 114 234.518 C 104.642 236.759, 93.185 240.601, 91.372 242.107 C 90.617 242.733, 90 243.917, 90 244.739 C 90 246.663, 92.085 246.162, 103.056 241.602 C 107.762 239.647, 114.513 237.286, 118.058 236.356 L 124.505 234.665 133.502 241.208 C 142.849 248.004, 149.009 251.611, 148.988 250.276 C 148.981 249.849, 147.406 248.483, 145.488 247.241 C 143.569 245.998, 142 244.334, 142 243.542 C 142 239.167, 157.762 232.196, 175.445 228.749 C 181.793 227.512, 186.989 226.044, 186.993 225.487 C 186.997 224.930, 181.488 223.634, 174.750 222.607 C 168.012 221.581, 155.750 219.482, 147.500 217.943 C 133.395 215.312, 112.578 212.843, 107 213.140 C 105.625 213.213, 100.770 213.633, 96.212 214.073 M 388.861 214.027 C 384.110 214.462, 373.760 216.019, 365.861 217.488 C 357.963 218.957, 348.800 220.576, 345.500 221.086 C 330.623 223.386, 324.603 224.690, 324.271 225.686 C 324.068 226.296, 325.985 227.055, 328.707 227.443 C 336.205 228.511, 352.709 232.819, 357.968 235.082 C 360.591 236.210, 364.161 238.603, 365.903 240.400 L 369.069 243.666 364.534 246.533 C 359.607 249.647, 358.506 251.518, 362.494 250.002 C 365.944 248.690, 369.239 246.550, 378.354 239.702 L 386.208 233.801 396.854 237.534 C 402.709 239.587, 409.623 242.332, 412.217 243.633 C 418.260 246.666, 420.238 246.696, 419.820 243.750 C 419.547 241.832, 417.801 240.947, 408 237.759 C 401.675 235.702, 394.587 233.547, 392.249 232.970 L 387.997 231.922 393.447 224.211 L 398.896 216.500 406.198 216.803 C 413.254 217.096, 421.914 218.642, 430.745 221.187 C 433.759 222.056, 435.300 222.100, 436.059 221.341 C 440.713 216.687, 410.675 212.033, 388.861 214.027 M 280.187 222.750 C 280.370 223.713, 281.528 224.644, 282.760 224.820 C 284.461 225.062, 285 224.641, 285 223.070 C 285 221.513, 284.362 221, 282.427 221 C 280.515 221, 279.939 221.450, 280.187 222.750 M 226 223.500 C 226 224.333, 226.889 225, 228 225 C 229.111 225, 230 224.333, 230 223.500 C 230 222.667, 229.111 222, 228 222 C 226.889 222, 226 222.667, 226 223.500 M 165 259.799 C 165 260.733, 163.162 265.687, 160.916 270.808 C 154.549 285.326, 150.931 300.965, 150.267 316.830 L 149.710 330.161 144.450 335.136 C 138.401 340.857, 132.956 350.529, 130.452 360 C 129.467 363.729, 128.471 372.469, 128.117 380.500 L 127.500 394.500 123.272 388.938 C 113.611 376.230, 108.610 360.805, 109.170 345.442 C 109.496 336.484, 109.898 334.650, 112.842 328.669 C 114.660 324.976, 118.526 319.377, 121.432 316.227 C 129.955 306.989, 131.809 301.399, 128.483 294.967 C 125.012 288.254, 113.749 286.531, 104.408 291.283 C 98.539 294.269, 90.697 302.424, 86.825 309.566 C 77.009 327.675, 75.271 352.360, 82.217 375 C 85.025 384.153, 92.200 398.125, 98.836 407.364 C 109.208 421.802, 129.956 439.466, 142.746 444.747 C 145.082 445.711, 146.994 446.754, 146.996 447.065 C 146.998 447.375, 145.422 448.382, 143.493 449.302 C 136.675 452.553, 134.013 461.229, 137.886 467.580 C 140.861 472.460, 146.011 474.347, 157.621 474.812 L 167.743 475.217 168.298 480.602 C 168.934 486.760, 171.644 491.202, 176.329 493.765 C 180.843 496.235, 199.462 496.212, 206.576 493.728 C 213.167 491.426, 218.004 486.472, 218.641 481.371 C 219.743 472.551, 211.227 464, 201.343 464 L 197 464 196.980 459.250 C 196.950 451.977, 195.357 442.419, 190.479 420.240 C 183.600 388.968, 183.053 378.750, 187.546 365.515 C 189.121 360.877, 189.118 360.856, 185.518 352.475 C 176.781 332.134, 176.918 314.089, 185.952 295.250 C 188.128 290.712, 190.086 287, 190.303 287 C 190.520 287, 194.317 290.566, 198.741 294.925 C 205.209 301.298, 208.617 303.740, 216.142 307.393 C 236.183 317.121, 256.205 319.038, 278.500 313.364 C 292.506 309.800, 309.857 299.203, 316.239 290.316 L 319.484 285.798 323.749 294.649 C 329.384 306.345, 331.345 315.770, 330.689 328 C 330.163 337.793, 327.045 348.777, 322.809 355.752 C 320.877 358.933, 320.873 359.152, 322.617 365.752 C 323.858 370.447, 324.398 376.151, 324.392 384.500 C 324.384 394.723, 323.840 398.869, 320.715 412.500 C 315.014 437.373, 313.102 447.335, 312.390 455.881 L 311.731 463.775 306.324 464.223 C 297.210 464.979, 291.500 470.795, 291.500 479.323 C 291.500 486.065, 294.248 489.963, 301.222 493.115 C 305.801 495.184, 308.023 495.500, 318 495.500 C 328.359 495.500, 329.922 495.258, 333.759 493.061 C 339.153 489.972, 341.098 486.984, 341.879 480.588 L 342.500 475.500 352.500 474.913 C 358.165 474.580, 364.116 473.631, 366.228 472.723 C 376.028 468.510, 376.454 454.389, 366.929 449.463 C 365.192 448.565, 364.159 447.491, 364.635 447.077 C 365.111 446.662, 368.921 445.104, 373.102 443.614 C 422.658 425.953, 449.740 366.821, 430.314 318.694 C 427.108 310.750, 424.709 306.755, 419.211 300.203 C 412.962 292.758, 406.116 289.021, 398.700 289.009 C 388.499 288.993, 384 292.904, 384 301.788 C 384 308.367, 384.739 309.795, 392.481 318.182 C 395.873 321.857, 400.067 327.524, 401.800 330.775 C 413.171 352.111, 408.256 380.331, 389.880 399.202 C 383.467 405.788, 380.979 407.346, 381.020 404.750 C 381.030 404.063, 381.690 399.900, 382.485 395.500 C 384.448 384.635, 384.332 377.247, 382.024 366 C 379.507 353.743, 373.119 340.669, 365.577 332.343 L 360 326.185 359.992 319.343 C 359.978 305.984, 355.552 286.308, 349.065 270.755 C 346.829 265.396, 345 260.339, 345 259.518 C 345 258.325, 343.846 258.550, 339.250 260.642 C 329.719 264.980, 313.802 269.742, 299.763 272.457 C 281.900 275.911, 256.965 280.171, 254.500 280.189 C 251.054 280.214, 213.001 273.101, 202 270.375 C 191.704 267.824, 176.176 262.834, 168.750 259.690 C 165.266 258.215, 165 258.222, 165 259.799 M 357.992 366.750 C 357.973 377.556, 355.671 389.972, 350.008 409.809 C 344.458 429.249, 340.799 445.593, 341.646 447.156 C 342.618 448.948, 346.735 446.055, 351.593 440.166 C 358.147 432.221, 365.231 418.799, 367.495 410.039 C 369.818 401.048, 369.660 386.297, 367.154 378.246 C 365.492 372.907, 359.612 362, 358.396 362 C 358.178 362, 357.996 364.137, 357.992 366.750 M 147.504 366.750 C 143.105 373.173, 140.622 383.204, 140.635 394.500 C 140.653 410.544, 145.541 424.505, 155.952 438.248 C 161.439 445.491, 165.141 448.544, 167.390 447.681 C 169.289 446.952, 167.783 439.224, 160.048 410.019 C 153.575 385.579, 152.019 377.595, 152.008 368.750 C 152.003 365.587, 151.566 363, 151.036 363 C 150.506 363, 148.916 364.688, 147.504 366.750 M 202.493 381.003 C 203.504 391.142, 204.885 397.373, 209.598 413.071 C 214.021 427.804, 216.822 441.907, 219.102 460.924 C 219.850 467.164, 220.623 470.576, 221.029 469.424 C 221.654 467.647, 222.879 467.489, 237.103 467.358 C 245.571 467.280, 253.625 467.178, 255 467.131 C 256.375 467.084, 264.646 467.373, 273.379 467.773 C 283.738 468.247, 289.352 468.152, 289.526 467.500 C 289.673 466.950, 290.719 458.625, 291.850 449 C 293.863 431.868, 294.782 427.934, 302.477 403.500 C 306.160 391.805, 308.472 375, 306.398 375 C 305.928 375, 302.060 378.464, 297.802 382.697 C 293.544 386.930, 289.772 390.105, 289.419 389.753 C 289.067 389.400, 288.543 386.173, 288.254 382.580 C 287.966 378.988, 287.401 376.252, 287 376.500 C 286.598 376.749, 286.031 383.825, 285.740 392.226 C 285.001 413.524, 283.191 418.462, 270.608 433.500 C 261.508 444.376, 258.268 450.068, 256.642 458.043 C 255.964 461.365, 254.997 464.084, 254.492 464.084 C 253.988 464.085, 253.092 461.703, 252.502 458.792 C 250.957 451.173, 247.823 445.566, 238.859 434.387 C 226.343 418.777, 224.086 412.529, 223.912 393 C 223.772 377.279, 222.621 372.373, 221.512 382.772 C 221.086 386.772, 220.390 390.259, 219.966 390.521 C 219.542 390.783, 216.541 388.410, 213.298 385.249 C 210.054 382.087, 206.150 378.376, 204.623 377.003 L 201.845 374.506 202.493 381.003" stroke="none" fill="black" fill-rule="evenodd"/>
</svg>